<svg xmlns="http://www.w3.org/2000/svg" id="svg1" version="1.1" viewBox="0 0 512 512" height="512" width="512">
  
  <defs id="defs1"></defs>
  <g id="layer1">
    <path d="M 120.4482,420.1311 A 59.027,60.467175 0 0 1 61.434113,480.59828 59.027,60.467175 0 0 1 2.3942012,420.15757 59.027,60.467175 0 0 1 61.382446,359.66394 59.027,60.467175 0 0 1 120.44817,420.07818 l -59.026974,0.0529 z" id="path15" style="fill:#000000;stroke-width:2.01057"></path>
    <path d="m 510.68382,420.1311 a 59.027481,60.467175 0 0 1 -59.01456,60.46718 59.027481,60.467175 0 0 1 -59.04039,-60.44071 59.027481,60.467175 0 0 1 58.98872,-60.49363 59.027481,60.467175 0 0 1 59.06621,60.41424 l -59.02746,0.0529 z" id="path16" style="fill:#000000;stroke-width:2.01057"></path>
    <rect rx="59.021191" transform="rotate(30)" ry="59.021191" y="-130.159" x="205.47313" height="335.02725" width="118.04239" id="rect16" style="fill:#000000;stroke-width:1.48153"></rect>
    <rect rx="59.021191" transform="rotate(30)" ry="59.021191" y="-37.634163" x="371.15729" height="335.02725" width="118.04239" id="rect17" style="fill:#000000;stroke-width:1.48153"></rect>
  </g>
</svg>
